<?xml version="1.0" encoding="utf-8"?><svg xmlns="http://www.w3.org/2000/svg" xmlns:xlink="http://www.w3.org/1999/xlink"><symbol viewBox="0 0 24 25" id="icon-arrow" xmlns="http://www.w3.org/2000/svg"><path d="M5 12.5h14M12 5.5l7 7-7 7" stroke="#fff" stroke-width="2" stroke-linecap="round" stroke-linejoin="round"/></symbol><symbol viewBox="0 0 40 40" id="icon-bathroom" xmlns="http://www.w3.org/2000/svg"><path d="M37.5 21.25h-35a1.25 1.25 0 0 0-1.25 1.25v6.25a7.508 7.508 0 0 0 7.5 7.5H10v2.5a1.25 1.25 0 0 0 2.5 0v-2.5h15v2.5a1.25 1.25 0 0 0 2.5 0v-2.5h1.25a7.508 7.508 0 0 0 7.5-7.5V22.5a1.25 1.25 0 0 0-1.25-1.25ZM20 7.625V6.25a3.75 3.75 0 0 1 7.5 0v12.5H30V6.25a6.25 6.25 0 0 0-12.5 0v1.375a6.261 6.261 0 0 0-5 6.125A1.25 1.25 0 0 0 13.75 15h10A1.25 1.25 0 0 0 25 13.75a6.26 6.26 0 0 0-5-6.125Z"/></symbol><symbol viewBox="0 0 24 24" id="icon-calendar" xmlns="http://www.w3.org/2000/svg"><g stroke="#fff" stroke-width="2" stroke-linecap="round" stroke-linejoin="round"><path d="M19 4H5a2 2 0 0 0-2 2v14a2 2 0 0 0 2 2h14a2 2 0 0 0 2-2V6a2 2 0 0 0-2-2Z"/><path d="m15 14-3.125 4L10 16.118M16 2v4M8 2v4M3 10h18"/></g></symbol><symbol viewBox="0 0 16 16" id="icon-check" xmlns="http://www.w3.org/2000/svg"><path d="M13.333 4 6 11.333 2.667 8" stroke="inherit" stroke-width="2" stroke-linecap="round" stroke-linejoin="round"/></symbol><symbol viewBox="0 0 32 32" id="icon-chevron" xmlns="http://www.w3.org/2000/svg"><path d="m8 12 8 8 8-8" stroke="inherit" stroke-width="2" stroke-linecap="round" stroke-linejoin="round"/></symbol><symbol viewBox="0 0 24 24" id="icon-clock" xmlns="http://www.w3.org/2000/svg"><g stroke="#fff" stroke-width="2" stroke-linecap="round" stroke-linejoin="round"><path d="M12 22c5.523 0 10-4.477 10-10S17.523 2 12 2 2 6.477 2 12s4.477 10 10 10Z"/><path d="M12 6v6l4 2"/></g></symbol><symbol viewBox="0 0 40 40" id="icon-door" xmlns="http://www.w3.org/2000/svg"><path d="M36.295 9.978h-16.82a4.056 4.056 0 1 0 0 5.796h16.82a.58.58 0 0 0 .58-.58v-4.636a.58.58 0 0 0-.58-.58Z"/><path d="M21.66.73H10.228A2.858 2.858 0 0 0 7.37 3.586l-.546 32.826a2.858 2.858 0 0 0 2.858 2.858h11.432a2.858 2.858 0 0 0 2.858-2.858l.546-18.535h-3.82a6.43 6.43 0 1 1-.001-10.004h3.82V3.587A2.858 2.858 0 0 0 21.66.73Zm-6.262 23.537a2.845 2.845 0 0 1 1.429 5.313v3.26a.714.714 0 0 1-.715.715h-1.429a.714.714 0 0 1-.714-.714V29.58a2.845 2.845 0 0 1 1.429-5.313Z"/></symbol><symbol viewBox="0 0 24 24" id="icon-facebook" xmlns="http://www.w3.org/2000/svg"><path d="M18 2h-3a5 5 0 0 0-5 5v3H7v4h3v8h4v-8h3l1-4h-4V7a1 1 0 0 1 1-1h3V2Z"/></symbol><symbol viewBox="0 0 24 24" id="icon-guarantee" xmlns="http://www.w3.org/2000/svg"><g stroke="#fff" stroke-width="2"><path d="M10.575 2.946a2 2 0 0 1 2.85 0l1.043 1.06a2 2 0 0 0 1.44.596l1.487-.011a2 2 0 0 1 2.014 2.014l-.01 1.487a2 2 0 0 0 .596 1.44l1.059 1.043a2 2 0 0 1 0 2.85l-1.06 1.043a2 2 0 0 0-.596 1.44l.011 1.487a2 2 0 0 1-2.014 2.014l-1.487-.01a2 2 0 0 0-1.44.596l-1.043 1.059a2 2 0 0 1-2.85 0l-1.043-1.06a2 2 0 0 0-1.44-.596l-1.487.011a2 2 0 0 1-2.014-2.014l.01-1.487a2 2 0 0 0-.596-1.44l-1.059-1.043a2 2 0 0 1 0-2.85l1.06-1.043a2 2 0 0 0 .596-1.44L4.59 6.605a2 2 0 0 1 2.014-2.014l1.487.01a2 2 0 0 0 1.44-.596l1.043-1.059Z"/><path d="m16 10-4.375 4L9 12.118" stroke-linecap="round" stroke-linejoin="round"/></g></symbol><symbol viewBox="0 0 24 24" id="icon-instagram" xmlns="http://www.w3.org/2000/svg"><path d="M17 2H7a5 5 0 0 0-5 5v10a5 5 0 0 0 5 5h10a5 5 0 0 0 5-5V7a5 5 0 0 0-5-5Z"/><path d="M16 11.37a4 4 0 1 1-7.914 1.174A4 4 0 0 1 16 11.37ZM17.5 6.5h.01" stroke="#15B2F5" stroke-width="2" stroke-linecap="round" stroke-linejoin="round"/></symbol><symbol viewBox="0 0 24 24" id="icon-mail" xmlns="http://www.w3.org/2000/svg"><path d="M4 4h16c1.1 0 2 .9 2 2v12c0 1.1-.9 2-2 2H4c-1.1 0-2-.9-2-2V6c0-1.1.9-2 2-2Z"/><path d="m22 6-10 7L2 6" stroke="#15B2F5" stroke-width="2" stroke-linecap="round" stroke-linejoin="round"/></symbol><symbol viewBox="0 0 20 20" id="icon-phone" xmlns="http://www.w3.org/2000/svg"><path d="M20 14.92v3a2 2 0 0 1-2.18 2 19.791 19.791 0 0 1-8.63-3.07 19.5 19.5 0 0 1-6-6A19.79 19.79 0 0 1 .12 2.18 2 2 0 0 1 2.11 0h3a2 2 0 0 1 2 1.72c.127.96.361 1.903.7 2.81a2 2 0 0 1-.45 2.11L6.09 7.91a16 16 0 0 0 6 6l1.27-1.27a2 2 0 0 1 2.11-.45c.907.339 1.85.574 2.81.7A2 2 0 0 1 20 14.92Z"/></symbol><symbol viewBox="0 0 24 24" id="icon-pin" xmlns="http://www.w3.org/2000/svg"><g stroke="#fff" stroke-width="2" stroke-linecap="round" stroke-linejoin="round"><path d="M21 10c0 5.123-4.82 9.71-7.405 11.802a2.512 2.512 0 0 1-3.19 0C7.82 19.709 3 15.122 3 10a9 9 0 1 1 18 0Z"/><path d="M12 13a3 3 0 1 0 0-6 3 3 0 0 0 0 6Z"/></g></symbol><symbol viewBox="0 0 40 40" id="icon-plumbing" xmlns="http://www.w3.org/2000/svg"><path d="m33.353 7.362-3.979-3.81c-1.464-1.402-3.848-1.402-5.312 0L18.75 8.637l3.98 3.81 3.979-3.81L33.353 15A5.299 5.299 0 0 0 35 11.18a5.299 5.299 0 0 0-1.647-3.818ZM8.27 22.982a2.596 2.596 0 0 0 3.686 0l4.294-4.286L12.564 15 8.27 19.286a2.604 2.604 0 0 0 0 3.696Z"/><path d="m25.54 12.668 5.175 5.014c.17.164.304.359.396.573a1.714 1.714 0 0 1 0 1.352 1.765 1.765 0 0 1-.396.573c-.17.165-.372.295-.594.383a1.886 1.886 0 0 1-1.994-.383L11.266 36.465c-1.431 1.382-3.761 1.382-5.192 0a3.465 3.465 0 0 1 0-5.015l12.971-12.527-5.834-5.634a2.636 2.636 0 0 1-.601-.86 2.561 2.561 0 0 1 0-2.036c.139-.322.343-.615.6-.86 1.065-1.046 2.808-1.046 3.89.018l5.835 5.634 2.605-2.516Z"/></symbol><symbol viewBox="0 0 40 40" id="icon-repair" xmlns="http://www.w3.org/2000/svg"><path d="M28.68 7.955a3.026 3.026 0 0 0 2.25 5.124 3.034 3.034 0 0 0 2.125-.93l4.03-4.192a8.554 8.554 0 0 1-1.475 9.78 8.581 8.581 0 0 1-9.725 1.87c-2.133-1.588-3.08-2.508-4.376-4.194a8.554 8.554 0 0 1 1.476-9.78 8.581 8.581 0 0 1 9.725-1.87l-4.03 4.192ZM13.616 23.787l4.398 4.17-6.53 6.926a3.035 3.035 0 0 1-5.219-2.036 3.026 3.026 0 0 1 .844-2.158l6.507-6.902ZM19.166 16.303l14.292 13.552a3.558 3.558 0 0 1 .169 4.995 3.57 3.57 0 0 1-5.082.171L14.253 21.469a3.56 3.56 0 0 1-.736-4.174L6.882 10.9l-1.23 1.23L2 7.21l2.258-2.494 5.28 3.528-1.22 1.22 6.586 6.349a3.573 3.573 0 0 1 4.262.49Z"/></symbol><symbol viewBox="0 0 40 40" id="icon-roof" xmlns="http://www.w3.org/2000/svg"><g clip-path="url(#pa)"><path d="M13.911 14.907h-6.3l-.35.673h6.265l-2.738 4.782h-6.01l-.35.674h5.975L7.88 25.44h-5.77l1.552-2.983v-1.422h.019v-.673h-.019V15.58h.019v-.673h-.019v-.358h.019v-1.33h4.786l1.766-3.395h6.587l-2.91 5.083ZM17.596 9.824l-2.91 5.083h5.47l2.91-5.083h-5.47ZM23.842 9.824l-2.91 5.083h5.89l1.3-2.539 8.84 17.809h3.39L29.766 9.824h-5.924Z"/><path d="M26.477 15.58h-5.93l-2.738 4.782h6.217l2.45-4.782ZM23.68 21.035h-6.256l-2.521 4.405h6.52l2.258-4.405ZM21.079 26.113h-6.562l-2.326 4.064h6.805l2.083-4.064ZM11.415 30.177l2.327-4.064h-5.47l-2.327 4.064h5.47ZM5.17 30.177l2.326-4.064H1.761l-2.114 4.064H5.17ZM14.301 15.58h5.47l-2.737 4.782h-5.47L14.3 15.58ZM11.178 21.035 8.657 25.44h5.47l2.521-4.405h-5.47ZM24.887 22.472h2.968v2.968h-2.968v-2.968ZM24.887 26.182h2.968v2.968h-2.968v-2.968ZM31.564 22.472h-2.967v2.968h2.967v-2.968ZM28.597 26.182h2.967v2.968h-2.967v-2.968Z"/></g><defs><clipPath id="pa"><path d="M0 0h40v40H0z"/></clipPath></defs></symbol><symbol viewBox="0 0 36 36" id="icon-star" xmlns="http://www.w3.org/2000/svg"><path d="M16.044 6.021c.615-1.895 3.297-1.895 3.912 0l1.623 4.995a2.057 2.057 0 0 0 1.957 1.421h5.252c1.993 0 2.821 2.55 1.209 3.722l-4.249 3.087a2.057 2.057 0 0 0-.747 2.3l1.623 4.995c.616 1.895-1.554 3.47-3.166 2.3l-4.249-3.087a2.057 2.057 0 0 0-2.418 0l-4.25 3.087c-1.611 1.17-3.78-.405-3.165-2.3L11 21.546a2.057 2.057 0 0 0-.747-2.3l-4.249-3.087c-1.612-1.171-.784-3.722 1.21-3.722h5.251c.891 0 1.681-.573 1.957-1.421l1.623-4.995Z"/></symbol><symbol viewBox="0 0 24 24" id="icon-twitter" xmlns="http://www.w3.org/2000/svg"><path d="M23 3a10.9 10.9 0 0 1-3.14 1.53 4.48 4.48 0 0 0-7.86 3v1A10.66 10.66 0 0 1 3 4s-4 9 5 13a11.64 11.64 0 0 1-7 2c9 5 20 0 20-11.5 0-.278-.028-.556-.08-.83A7.72 7.72 0 0 0 23 3Z"/></symbol><symbol viewBox="0 0 40 40" id="icon-wall" xmlns="http://www.w3.org/2000/svg"><path d="M5 9a1 1 0 0 1 1-1h12.082a1 1 0 0 1 1 1v4.757a1 1 0 0 1-1 1H6a1 1 0 0 1-1-1V9ZM5 18.122a1 1 0 0 1 1-1h5.96a1 1 0 0 1 1 1v4.756a1 1 0 0 1-1 1H6a1 1 0 0 1-1-1v-4.756ZM14.796 18.122a1 1 0 0 1 1-1h12.082a1 1 0 0 1 1 1v4.756a1 1 0 0 1-1 1H15.796a1 1 0 0 1-1-1v-4.756ZM5 27.243a1 1 0 0 1 1-1h12.082a1 1 0 0 1 1 1V32a1 1 0 0 1-1 1H6a1 1 0 0 1-1-1v-4.757ZM20.918 27.243a1 1 0 0 1 1-1H34a1 1 0 0 1 1 1V32a1 1 0 0 1-1 1H21.918a1 1 0 0 1-1-1v-4.757Z"/></symbol><symbol viewBox="0 0 40 40" id="icon-wood" xmlns="http://www.w3.org/2000/svg"><path d="M34.721 2.959h-3.526a.588.588 0 0 0-.525.325l-3 6-3-6a.588.588 0 0 0-.526-.325H11.217a.587.587 0 0 0-.588.588v15.382l-5.56-3.538a.588.588 0 0 0-.731.08L1.4 18.409a.587.587 0 0 0-.024.806l9.253 10.41v6.828c0 .324.263.587.588.587h6.463v-9.402a.587.587 0 1 1 1.176 0v9.402H34.72a.587.587 0 0 0 .588-.587V3.547a.587.587 0 0 0-.588-.588ZM18.856 24.113a.587.587 0 1 1-1.176 0v-1.175a.587.587 0 1 1 1.176 0v1.175Z"/></symbol><symbol viewBox="0 0 24 24" id="icon-youtube" xmlns="http://www.w3.org/2000/svg"><path fill-rule="evenodd" clip-rule="evenodd" d="M21.84 5.16c.34.35.582.785.7 1.26.318 1.759.472 3.543.46 5.33a29.008 29.008 0 0 1-.46 5.25 2.78 2.78 0 0 1-1.94 2c-1.72.46-8.6.46-8.6.46s-6.88 0-8.6-.46a2.78 2.78 0 0 1-1.94-1.92A29 29 0 0 1 1 11.75a29 29 0 0 1 .46-5.29 2.78 2.78 0 0 1 1.94-2C5.12 4 12 4 12 4s6.88 0 8.6.42c.471.133.899.388 1.24.74Zm-6.34 6.59-5.75 3.27V8.48l5.75 3.27Z"/></symbol></svg>